# xmcd
#
# Track frame offsets:
#	150
#	13984
#	29158
#	43924
#	57727
#	72085
#	85803
#	97581
#	113340
#	128114
#	140689
#	154455
#	166964
#	178901
#	192878
#	206587
#	220673
#	233547
#	246496
#	257814
#	268035
#	281012
#	296336
#	308081
#	322386
#	334204
#
# Disc length: 4607 seconds
#
# Revision: 1
# Processed by: cddbd v1.5.2PL0 Copyright (c) Steve Scherf et al.
# Submitted via: EZCDAudioConverter 7.0.6.1
#
DISCID=9311fd1a
DTITLE=Various Artist - Down Home Blues: Chicago 3/5
DYEAR=1900
DGENRE=Blues
TTITLE0=Elmore James - She Just Won't Do Right
TTITLE1=Elmore James - My Best Friend
TTITLE2=Elmore James - Whose Muddy Shoes
TTITLE3=Baby Face Leroy - Blues Is Killin' Me
TTITLE4=Baby Face Leroy - Late Hours At Midnight
TTITLE5=Blue Smitty - Crying
TTITLE6=Blue Smitty - Date Bait
TTITLE7=Jimmy Rogers - Mistreated Baby
TTITLE8=Jimmy Rogers - What's The Matter?
TTITLE9=Homesick James - Whiskey Headed Woman
TTITLE10=Little Walter - Blue Midnight [Alternate Take]
TTITLE11=Johnny Williams - Silver Haired Woman
TTITLE12=Johnny Williams - Fat Mouth
TTITLE13=Jimmy Reed - You Don't Have To Go
TTITLE14=Jimmy Rogers - Act Like You Love Me [Alternate Take]
TTITLE15=Homesick James - Homesick [Alternate Take]
TTITLE16=Homesick James - Late Hours At Midnight
TTITLE17=Billy Boy Arnold - Hello Stranger
TTITLE18=Billy Boy Arnold - I Ain't Got No Money
TTITLE19=Johnny Shines - Evening Shuffle [Alternate Take]
TTITLE20=J.B. Lenoir - The Mojo [Alternate Take]
TTITLE21=J.B. Lenoir - Slow Down Woman [Alternate Take]
TTITLE22=Howlin' Wolf - You Gonna Wreck My Life [Alternate Take]
TTITLE23=Big Boy Spires - Someday Little Darling
TTITLE24=Big Boy Spires - Rhythm Rock Boogie
TTITLE25=Memphis Minnie - Kissing In The Dark
EXTD=
EXTT0=
EXTT1=
EXTT2=
EXTT3=
EXTT4=
EXTT5=
EXTT6=
EXTT7=
EXTT8=
EXTT9=
EXTT10=
EXTT11=
EXTT12=
EXTT13=
EXTT14=
EXTT15=
EXTT16=
EXTT17=
EXTT18=
EXTT19=
EXTT20=
EXTT21=
EXTT22=
EXTT23=
EXTT24=
EXTT25=
PLAYORDER=
